HIERARCHY
ROOT joint_0
{
	OFFSET 0.000000 0.000000 0.000000
	CHANNELS 6 Xposition Yposition Zposition Zrotation Yrotation Xrotation 
	JOINT joint_1
	{
		OFFSET 14.113007 -2.961990 123.953979
		CHANNELS 3 Zrotation Yrotation Xrotation
		JOINT joint_2
		{
			OFFSET 0.764000 -2.434006 113.871948
			CHANNELS 3 Zrotation Yrotation Xrotation
			JOINT joint_3
			{
				OFFSET 0.186996 -2.169998 113.753052
				CHANNELS 3 Zrotation Yrotation Xrotation
				JOINT joint_4
				{
					OFFSET 16.096001 -2.720001 160.853027
					CHANNELS 3 Zrotation Yrotation Xrotation
					JOINT joint_5
					{
						OFFSET 34.392006 -0.188995 92.567017
						CHANNELS 3 Zrotation Yrotation Xrotation
						End Site
						{
							OFFSET 0.000000 0.000000 0.000000
						}
					}
				}
				JOINT joint_6
				{
					OFFSET 9.183998 -36.684006 89.597046
					CHANNELS 3 Zrotation Yrotation Xrotation
					JOINT joint_7
					{
						OFFSET 0.486000 -164.365997 -28.984009
						CHANNELS 3 Zrotation Yrotation Xrotation
						JOINT joint_8
						{
							OFFSET 38.899002 -34.967010 -291.651978
							CHANNELS 3 Zrotation Yrotation Xrotation
							JOINT joint_9
							{
								OFFSET 41.714005 -45.890991 -258.857056
								CHANNELS 3 Zrotation Yrotation Xrotation
								End Site
								{
									OFFSET 0.000000 0.000000 0.000000
								}
							}
						}
					}
				}
				JOINT joint_10
				{
					OFFSET 8.867004 33.650002 90.817993
					CHANNELS 3 Zrotation Yrotation Xrotation
					JOINT joint_11
					{
						OFFSET 0.018997 164.299999 -29.368042
						CHANNELS 3 Zrotation Yrotation Xrotation
						JOINT joint_12
						{
							OFFSET 29.440994 30.887997 -293.216919
							CHANNELS 3 Zrotation Yrotation Xrotation
							JOINT joint_13
							{
								OFFSET 46.174011 54.490005 -256.422058
								CHANNELS 3 Zrotation Yrotation Xrotation
								End Site
								{
									OFFSET 0.000000 0.000000 0.000000
								}
							}
						}
					}
				}
			}
		}
	}
	JOINT joint_14
	{
		OFFSET -2.264000 -89.466995 -116.150024
		CHANNELS 3 Zrotation Yrotation Xrotation
		JOINT joint_15
		{
			OFFSET -16.400993 -17.452988 -493.781982
			CHANNELS 3 Zrotation Yrotation Xrotation
			JOINT joint_16
			{
				OFFSET -50.497004 -13.404022 -424.754013
				CHANNELS 3 Zrotation Yrotation Xrotation
				JOINT joint_17
				{
					OFFSET 198.546007 -19.341003 -89.309000
					CHANNELS 3 Zrotation Yrotation Xrotation
					End Site
					{
						OFFSET 0.000000 0.000000 0.000000
					}
				}
			}
		}
	}
	JOINT joint_18
	{
		OFFSET -0.867996 96.016006 -110.817993
		CHANNELS 3 Zrotation Yrotation Xrotation
		JOINT joint_19
		{
			OFFSET -10.130997 24.658998 -493.645020
			CHANNELS 3 Zrotation Yrotation Xrotation
			JOINT joint_20
			{
				OFFSET -48.871004 19.434999 -424.714005
				CHANNELS 3 Zrotation Yrotation Xrotation
				JOINT joint_21
				{
					OFFSET 195.579996 24.926001 -94.327003
					CHANNELS 3 Zrotation Yrotation Xrotation
					End Site
					{
						OFFSET 0.000000 0.000000 0.000000
					}
				}
			}
		}
	}
}
MOTION
Frames: 6
Frame Time: 0.016667
-3115.833252 985.924377 1141.062012 3.209399 -4.866807 -1.742116 -0.577581 -0.393260 3.257632 -0.552963 0.046879 -0.732519 -0.556461 -0.086404 0.481236 -0.262617 -1.197010 0.684701 0.000000 0.000000 0.000000 0.156650 1.978650 -2.184216 -0.134707 2.040422 1.507674 -0.489760 -0.425504 -3.485813 0.000000 0.000000 0.000000 -0.250423 1.074846 -0.118610 0.284402 1.170680 0.161613 0.305273 0.001601 1.702093 0.000000 0.000000 0.000000 3.343612 1.746405 4.337837 3.339302 4.604713 1.664572 3.805776 -5.203845 1.186478 0.000000 0.000000 0.000000 -2.676882 2.066038 0.904803 -2.480587 5.265388 -1.509225 -3.119938 -6.170727 -0.709528 0.000000 0.000000 0.000000 
-3115.870117 985.766052 1140.990967 3.198631 -4.925967 -1.731251 -0.580718 -0.370879 3.264634 -0.557174 0.043560 -0.735063 -0.560515 -0.081250 0.482350 -0.260998 -1.191279 0.680379 0.000000 0.000000 0.000000 0.152759 1.993733 -2.223350 -0.133972 2.054776 1.525396 -0.488668 -0.436826 -3.491975 0.000000 0.000000 0.000000 -0.228396 1.093396 -0.089613 0.282686 1.185004 0.114227 0.307494 0.017896 1.695097 0.000000 0.000000 0.000000 3.346867 1.771012 4.334585 3.339694 4.679759 1.678913 3.813125 -5.219705 1.188012 0.000000 0.000000 0.000000 -2.672026 2.106744 0.904860 -2.475637 5.310103 -1.522494 -3.119205 -6.175071 -0.708539 0.000000 0.000000 0.000000 
-3115.837891 985.626892 1140.912964 3.194760 -4.989536 -1.718415 -0.587539 -0.345264 3.267165 -0.565240 0.038797 -0.735969 -0.568374 -0.074686 0.482700 -0.259253 -1.186507 0.675725 0.000000 0.000000 0.000000 0.149889 2.008446 -2.262563 -0.133638 2.069002 1.539329 -0.487005 -0.448571 -3.495160 0.000000 0.000000 0.000000 -0.208033 1.111380 -0.059907 0.281262 1.199117 0.071351 0.309387 0.034289 1.686109 0.000000 0.000000 0.000000 3.347330 1.804208 4.328757 3.337421 4.756678 1.692933 3.818027 -5.235012 1.188517 0.000000 0.000000 0.000000 -2.668963 2.158702 0.899780 -2.473589 5.348275 -1.532561 -3.120403 -6.177522 -0.708729 0.000000 0.000000 0.000000 
-3115.747559 985.508484 1140.828979 3.197321 -5.056723 -1.704060 -0.598415 -0.317630 3.266861 -0.577463 0.033215 -0.737750 -0.580354 -0.066883 0.482364 -0.258344 -1.182448 0.673290 0.000000 0.000000 0.000000 0.151760 2.022735 -2.302516 -0.133609 2.083678 1.549814 -0.484236 -0.461930 -3.493328 0.000000 0.000000 0.000000 -0.189570 1.128795 -0.025911 0.279794 1.212999 0.032096 0.310416 0.050124 1.672893 0.000000 0.000000 0.000000 3.344917 1.842259 4.320170 3.332058 4.839319 1.707976 3.820418 -5.248173 1.188114 0.000000 0.000000 0.000000 -2.667550 2.222344 0.889491 -2.474572 5.375769 -1.538310 -3.123171 -6.175554 -0.710251 0.000000 0.000000 0.000000 
-3115.588135 985.409302 1140.737061 3.207649 -5.128485 -1.687929 -0.613743 -0.286943 3.262308 -0.594293 0.027220 -0.737981 -0.596924 -0.058426 0.480845 -0.257393 -1.179396 0.670748 0.000000 0.000000 0.000000 0.156385 2.036550 -2.342610 -0.133968 2.098423 1.556886 -0.480894 -0.475367 -3.488126 0.000000 0.000000 0.000000 -0.171318 1.145829 0.009662 0.278547 1.226581 -0.003284 0.311129 0.065989 1.657836 0.000000 0.000000 0.000000 3.339516 1.889376 4.309186 3.323874 4.923417 1.722563 3.820181 -5.260645 1.186615 0.000000 0.000000 0.000000 -2.668140 2.297230 0.874228 -2.478652 5.397117 -1.540830 -3.128102 -6.172329 -0.712982 0.000000 0.000000 0.000000 
-3115.293457 985.334839 1140.635010 3.234514 -5.212302 -1.669093 -0.636950 -0.249830 3.252642 -0.619274 0.022212 -0.737303 -0.621650 -0.049417 0.477887 -0.255136 -1.180531 0.664707 0.000000 0.000000 0.000000 0.161110 2.051582 -2.377351 -0.135635 2.114609 1.556875 -0.477916 -0.487197 -3.483577 0.000000 0.000000 0.000000 -0.144776 1.163050 0.037517 0.278756 1.239124 -0.027461 0.312704 0.084329 1.644698 0.000000 0.000000 0.000000 3.328457 1.969928 4.297251 3.312101 4.987519 1.731312 3.814753 -5.275275 1.182633 0.000000 0.000000 0.000000 -2.672273 2.396643 0.850973 -2.488330 5.409336 -1.537514 -3.137484 -6.174717 -0.717153 0.000000 0.000000 0.000000 
